<mxfile host="Electron" modified="2023-11-30T00:13:46.362Z" agent="Mozilla/5.0 (Windows NT 10.0; Win64; x64) AppleWebKit/537.36 (KHTML, like Gecko) draw.io/22.1.2 Chrome/114.0.5735.289 Electron/25.9.4 Safari/537.36" etag="nzjHAQ3KQMm3jEJR0l2u" version="22.1.2" type="device">
  <diagram name="Page-1" id="BANYe0so6j22H4oOTmV4">
    <mxGraphModel dx="1256" dy="636" grid="1" gridSize="10" guides="1" tooltips="1" connect="1" arrows="1" fold="1" page="1" pageScale="1" pageWidth="850" pageHeight="1100" math="0" shadow="0">
      <root>
        <mxCell id="0" />
        <mxCell id="1" parent="0" />
        <mxCell id="96B0HlJwCbave_RlPzZK-1" value="&lt;b&gt;area&lt;/b&gt;" style="swimlane;childLayout=stackLayout;horizontal=1;startSize=50;horizontalStack=0;rounded=1;fontSize=14;fontStyle=0;strokeWidth=2;resizeParent=0;resizeLast=1;shadow=0;dashed=0;align=center;arcSize=4;whiteSpace=wrap;html=1;" vertex="1" parent="1">
          <mxGeometry x="60" y="115" width="160" height="170" as="geometry" />
        </mxCell>
        <mxCell id="96B0HlJwCbave_RlPzZK-2" value="+name[RC]&lt;br&gt;+no. of houses[R]&lt;br&gt;+zipcode[RU]&lt;br&gt;+population count[R]&lt;br&gt;+no. of bus stops[R]&lt;br&gt;+distance[R]&lt;br&gt;+preferred by[M]" style="align=left;strokeColor=none;fillColor=none;spacingLeft=4;fontSize=12;verticalAlign=top;resizable=0;rotatable=0;part=1;html=1;" vertex="1" parent="96B0HlJwCbave_RlPzZK-1">
          <mxGeometry y="50" width="160" height="120" as="geometry" />
        </mxCell>
        <mxCell id="96B0HlJwCbave_RlPzZK-3" value="&lt;b&gt;house&lt;/b&gt;" style="swimlane;childLayout=stackLayout;horizontal=1;startSize=50;horizontalStack=0;rounded=1;fontSize=14;fontStyle=0;strokeWidth=2;resizeParent=0;resizeLast=1;shadow=0;dashed=0;align=center;arcSize=4;whiteSpace=wrap;html=1;" vertex="1" parent="1">
          <mxGeometry x="370" y="405" width="160" height="170" as="geometry" />
        </mxCell>
        <mxCell id="96B0HlJwCbave_RlPzZK-4" value="+house number[R]&lt;br&gt;+no. of floors[R]&lt;br&gt;+no. of rooms[R]&lt;br&gt;+price range[R]&lt;br&gt;+furnishing type[M]&lt;br&gt;+availability[R]&lt;br&gt;+lease type[RM]" style="align=left;strokeColor=none;fillColor=none;spacingLeft=4;fontSize=12;verticalAlign=top;resizable=0;rotatable=0;part=1;html=1;" vertex="1" parent="96B0HlJwCbave_RlPzZK-3">
          <mxGeometry y="50" width="160" height="120" as="geometry" />
        </mxCell>
        <mxCell id="96B0HlJwCbave_RlPzZK-5" value="&lt;b&gt;landlord&lt;/b&gt;" style="swimlane;childLayout=stackLayout;horizontal=1;startSize=50;horizontalStack=0;rounded=1;fontSize=14;fontStyle=0;strokeWidth=2;resizeParent=0;resizeLast=1;shadow=0;dashed=0;align=center;arcSize=4;whiteSpace=wrap;html=1;" vertex="1" parent="1">
          <mxGeometry x="60" y="420" width="160" height="140" as="geometry" />
        </mxCell>
        <mxCell id="96B0HlJwCbave_RlPzZK-6" value="+name[RU]&lt;br&gt;+address[RC]&lt;br&gt;+zip code[RU]&lt;br&gt;+email[RU]&lt;br&gt;+phone number[RU]" style="align=left;strokeColor=none;fillColor=none;spacingLeft=4;fontSize=12;verticalAlign=top;resizable=0;rotatable=0;part=1;html=1;" vertex="1" parent="96B0HlJwCbave_RlPzZK-5">
          <mxGeometry y="50" width="160" height="90" as="geometry" />
        </mxCell>
        <mxCell id="96B0HlJwCbave_RlPzZK-7" value="&lt;b&gt;tenants&lt;/b&gt;" style="swimlane;childLayout=stackLayout;horizontal=1;startSize=50;horizontalStack=0;rounded=1;fontSize=14;fontStyle=0;strokeWidth=2;resizeParent=0;resizeLast=1;shadow=0;dashed=0;align=center;arcSize=4;whiteSpace=wrap;html=1;" vertex="1" parent="1">
          <mxGeometry x="640" y="380" width="160" height="140" as="geometry" />
        </mxCell>
        <mxCell id="96B0HlJwCbave_RlPzZK-8" value="+tenant type[RM]&lt;br&gt;+name[RC]&lt;br&gt;+email[RU]&lt;br&gt;+phone number[RU]&lt;br&gt;+nationality[RM]" style="align=left;strokeColor=none;fillColor=none;spacingLeft=4;fontSize=12;verticalAlign=top;resizable=0;rotatable=0;part=1;html=1;" vertex="1" parent="96B0HlJwCbave_RlPzZK-7">
          <mxGeometry y="50" width="160" height="90" as="geometry" />
        </mxCell>
        <mxCell id="96B0HlJwCbave_RlPzZK-9" value="&lt;b&gt;leasing_agency&lt;/b&gt;" style="swimlane;childLayout=stackLayout;horizontal=1;startSize=50;horizontalStack=0;rounded=1;fontSize=14;fontStyle=0;strokeWidth=2;resizeParent=0;resizeLast=1;shadow=0;dashed=0;align=center;arcSize=4;whiteSpace=wrap;html=1;" vertex="1" parent="1">
          <mxGeometry x="370" y="130" width="160" height="140" as="geometry" />
        </mxCell>
        <mxCell id="96B0HlJwCbave_RlPzZK-10" value="+name[RU]&lt;br&gt;+office address[RC]&lt;br&gt;+zip code[RU]&lt;br&gt;+email[RU]&lt;br&gt;+phone number[RU]" style="align=left;strokeColor=none;fillColor=none;spacingLeft=4;fontSize=12;verticalAlign=top;resizable=0;rotatable=0;part=1;html=1;" vertex="1" parent="96B0HlJwCbave_RlPzZK-9">
          <mxGeometry y="50" width="160" height="90" as="geometry" />
        </mxCell>
        <mxCell id="96B0HlJwCbave_RlPzZK-11" value="&lt;b&gt;reviews&lt;/b&gt;" style="swimlane;childLayout=stackLayout;horizontal=1;startSize=50;horizontalStack=0;rounded=1;fontSize=14;fontStyle=0;strokeWidth=2;resizeParent=0;resizeLast=1;shadow=0;dashed=0;align=center;arcSize=4;whiteSpace=wrap;html=1;" vertex="1" parent="1">
          <mxGeometry x="850" y="410" width="160" height="150" as="geometry" />
        </mxCell>
        <mxCell id="96B0HlJwCbave_RlPzZK-12" value="+apartment area[R]&lt;br&gt;+house number[R]&lt;br&gt;+leasing provider[R]&lt;br&gt;+utility availability[R]&lt;br&gt;+facilities nearby[R]&lt;br&gt;+safety level[R]" style="align=left;strokeColor=none;fillColor=none;spacingLeft=4;fontSize=12;verticalAlign=top;resizable=0;rotatable=0;part=1;html=1;" vertex="1" parent="96B0HlJwCbave_RlPzZK-11">
          <mxGeometry y="50" width="160" height="100" as="geometry" />
        </mxCell>
        <mxCell id="96B0HlJwCbave_RlPzZK-25" value="" style="fontSize=12;html=1;endArrow=ERoneToMany;startArrow=ERzeroToMany;rounded=0;entryX=1;entryY=0.5;entryDx=0;entryDy=0;" edge="1" parent="1" source="96B0HlJwCbave_RlPzZK-10" target="96B0HlJwCbave_RlPzZK-2">
          <mxGeometry width="100" height="100" relative="1" as="geometry">
            <mxPoint x="450" y="290" as="sourcePoint" />
            <mxPoint x="550" y="190" as="targetPoint" />
          </mxGeometry>
        </mxCell>
        <mxCell id="96B0HlJwCbave_RlPzZK-38" value="has/located in&amp;nbsp;" style="edgeLabel;html=1;align=center;verticalAlign=middle;resizable=0;points=[];" vertex="1" connectable="0" parent="96B0HlJwCbave_RlPzZK-25">
          <mxGeometry x="-0.0135" y="-3" relative="1" as="geometry">
            <mxPoint as="offset" />
          </mxGeometry>
        </mxCell>
        <mxCell id="96B0HlJwCbave_RlPzZK-26" value="" style="fontSize=12;html=1;endArrow=ERoneToMany;startArrow=ERzeroToMany;rounded=0;entryX=0.5;entryY=1;entryDx=0;entryDy=0;" edge="1" parent="1" source="96B0HlJwCbave_RlPzZK-5" target="96B0HlJwCbave_RlPzZK-2">
          <mxGeometry width="100" height="100" relative="1" as="geometry">
            <mxPoint x="290" y="300" as="sourcePoint" />
            <mxPoint x="170" y="300" as="targetPoint" />
          </mxGeometry>
        </mxCell>
        <mxCell id="96B0HlJwCbave_RlPzZK-37" value="has/is in&amp;nbsp;" style="edgeLabel;html=1;align=center;verticalAlign=middle;resizable=0;points=[];" vertex="1" connectable="0" parent="96B0HlJwCbave_RlPzZK-26">
          <mxGeometry x="0.2682" relative="1" as="geometry">
            <mxPoint y="16" as="offset" />
          </mxGeometry>
        </mxCell>
        <mxCell id="96B0HlJwCbave_RlPzZK-28" value="" style="edgeStyle=orthogonalEdgeStyle;fontSize=12;html=1;endArrow=ERoneToMany;startArrow=ERmandOne;rounded=0;entryX=0;entryY=0.25;entryDx=0;entryDy=0;exitX=1;exitY=0.75;exitDx=0;exitDy=0;curved=1;" edge="1" parent="1" source="96B0HlJwCbave_RlPzZK-2" target="96B0HlJwCbave_RlPzZK-3">
          <mxGeometry width="100" height="100" relative="1" as="geometry">
            <mxPoint x="260" y="350" as="sourcePoint" />
            <mxPoint x="360" y="250" as="targetPoint" />
          </mxGeometry>
        </mxCell>
        <mxCell id="96B0HlJwCbave_RlPzZK-39" value="has/is in&amp;nbsp;" style="edgeLabel;html=1;align=center;verticalAlign=middle;resizable=0;points=[];" vertex="1" connectable="0" parent="96B0HlJwCbave_RlPzZK-28">
          <mxGeometry x="0.0571" y="-1" relative="1" as="geometry">
            <mxPoint as="offset" />
          </mxGeometry>
        </mxCell>
        <mxCell id="96B0HlJwCbave_RlPzZK-29" value="" style="fontSize=12;html=1;endArrow=ERoneToMany;startArrow=ERmandOne;rounded=0;exitX=0.5;exitY=1;exitDx=0;exitDy=0;entryX=0.5;entryY=0;entryDx=0;entryDy=0;" edge="1" parent="1" source="96B0HlJwCbave_RlPzZK-10" target="96B0HlJwCbave_RlPzZK-3">
          <mxGeometry width="100" height="100" relative="1" as="geometry">
            <mxPoint x="450" y="420" as="sourcePoint" />
            <mxPoint x="450" y="390" as="targetPoint" />
          </mxGeometry>
        </mxCell>
        <mxCell id="96B0HlJwCbave_RlPzZK-40" value="owns/owned by" style="edgeLabel;html=1;align=center;verticalAlign=middle;resizable=0;points=[];" vertex="1" connectable="0" parent="96B0HlJwCbave_RlPzZK-29">
          <mxGeometry x="-0.046" y="2" relative="1" as="geometry">
            <mxPoint as="offset" />
          </mxGeometry>
        </mxCell>
        <mxCell id="96B0HlJwCbave_RlPzZK-30" value="" style="fontSize=12;html=1;endArrow=ERoneToMany;startArrow=ERmandOne;rounded=0;exitX=1;exitY=0.5;exitDx=0;exitDy=0;entryX=0.25;entryY=0;entryDx=0;entryDy=0;edgeStyle=orthogonalEdgeStyle;elbow=vertical;curved=1;" edge="1" parent="1" source="96B0HlJwCbave_RlPzZK-10" target="96B0HlJwCbave_RlPzZK-7">
          <mxGeometry width="100" height="100" relative="1" as="geometry">
            <mxPoint x="580" y="265" as="sourcePoint" />
            <mxPoint x="660" y="220" as="targetPoint" />
          </mxGeometry>
        </mxCell>
        <mxCell id="96B0HlJwCbave_RlPzZK-41" value="has/have" style="edgeLabel;html=1;align=center;verticalAlign=middle;resizable=0;points=[];" vertex="1" connectable="0" parent="96B0HlJwCbave_RlPzZK-30">
          <mxGeometry x="0.2502" y="-14" relative="1" as="geometry">
            <mxPoint y="1" as="offset" />
          </mxGeometry>
        </mxCell>
        <mxCell id="96B0HlJwCbave_RlPzZK-31" value="" style="fontSize=12;html=1;endArrow=ERoneToMany;startArrow=ERmandOne;rounded=0;entryX=0.5;entryY=0;entryDx=0;entryDy=0;exitX=1;exitY=0.25;exitDx=0;exitDy=0;edgeStyle=orthogonalEdgeStyle;" edge="1" parent="1" source="96B0HlJwCbave_RlPzZK-10" target="96B0HlJwCbave_RlPzZK-11">
          <mxGeometry width="100" height="100" relative="1" as="geometry">
            <mxPoint x="360" y="420" as="sourcePoint" />
            <mxPoint x="460" y="320" as="targetPoint" />
          </mxGeometry>
        </mxCell>
        <mxCell id="96B0HlJwCbave_RlPzZK-42" value="has/for" style="edgeLabel;html=1;align=center;verticalAlign=middle;resizable=0;points=[];" vertex="1" connectable="0" parent="96B0HlJwCbave_RlPzZK-31">
          <mxGeometry x="0.0953" y="1" relative="1" as="geometry">
            <mxPoint as="offset" />
          </mxGeometry>
        </mxCell>
        <mxCell id="96B0HlJwCbave_RlPzZK-32" value="" style="fontSize=12;html=1;endArrow=ERoneToMany;startArrow=ERmandOne;rounded=0;exitX=1;exitY=0.5;exitDx=0;exitDy=0;entryX=0;entryY=0.5;entryDx=0;entryDy=0;" edge="1" parent="1" source="96B0HlJwCbave_RlPzZK-6" target="96B0HlJwCbave_RlPzZK-4">
          <mxGeometry width="100" height="100" relative="1" as="geometry">
            <mxPoint x="270" y="510" as="sourcePoint" />
            <mxPoint x="370" y="410" as="targetPoint" />
          </mxGeometry>
        </mxCell>
        <mxCell id="96B0HlJwCbave_RlPzZK-43" value="owns/owned by" style="edgeLabel;html=1;align=center;verticalAlign=middle;resizable=0;points=[];" vertex="1" connectable="0" parent="96B0HlJwCbave_RlPzZK-32">
          <mxGeometry x="-0.1346" y="2" relative="1" as="geometry">
            <mxPoint as="offset" />
          </mxGeometry>
        </mxCell>
        <mxCell id="96B0HlJwCbave_RlPzZK-33" value="" style="edgeStyle=orthogonalEdgeStyle;fontSize=12;html=1;endArrow=ERoneToMany;startArrow=ERmandOne;rounded=0;exitX=0.5;exitY=1;exitDx=0;exitDy=0;entryX=1;entryY=0.25;entryDx=0;entryDy=0;" edge="1" parent="1" source="96B0HlJwCbave_RlPzZK-6" target="96B0HlJwCbave_RlPzZK-8">
          <mxGeometry width="100" height="100" relative="1" as="geometry">
            <mxPoint x="140" y="567" as="sourcePoint" />
            <mxPoint x="750" y="450" as="targetPoint" />
            <Array as="points">
              <mxPoint x="140" y="597" />
              <mxPoint x="830" y="597" />
              <mxPoint x="830" y="453" />
            </Array>
          </mxGeometry>
        </mxCell>
        <mxCell id="96B0HlJwCbave_RlPzZK-44" value="has/have" style="edgeLabel;html=1;align=center;verticalAlign=middle;resizable=0;points=[];" vertex="1" connectable="0" parent="96B0HlJwCbave_RlPzZK-33">
          <mxGeometry x="0.0036" y="-2" relative="1" as="geometry">
            <mxPoint as="offset" />
          </mxGeometry>
        </mxCell>
        <mxCell id="96B0HlJwCbave_RlPzZK-34" value="" style="edgeStyle=orthogonalEdgeStyle;fontSize=12;html=1;endArrow=ERoneToMany;startArrow=ERmandOne;rounded=0;entryX=1;entryY=0.25;entryDx=0;entryDy=0;elbow=vertical;exitX=0.25;exitY=1;exitDx=0;exitDy=0;" edge="1" parent="1" source="96B0HlJwCbave_RlPzZK-6" target="96B0HlJwCbave_RlPzZK-12">
          <mxGeometry width="100" height="100" relative="1" as="geometry">
            <mxPoint x="220" y="550" as="sourcePoint" />
            <mxPoint x="470" y="550" as="targetPoint" />
            <Array as="points">
              <mxPoint x="100" y="630" />
              <mxPoint x="1070" y="630" />
              <mxPoint x="1070" y="485" />
            </Array>
          </mxGeometry>
        </mxCell>
        <mxCell id="96B0HlJwCbave_RlPzZK-45" value="has/for" style="edgeLabel;html=1;align=center;verticalAlign=middle;resizable=0;points=[];" vertex="1" connectable="0" parent="96B0HlJwCbave_RlPzZK-34">
          <mxGeometry x="0.0735" relative="1" as="geometry">
            <mxPoint as="offset" />
          </mxGeometry>
        </mxCell>
        <mxCell id="96B0HlJwCbave_RlPzZK-36" value="" style="fontSize=12;html=1;endArrow=ERoneToMany;startArrow=ERmandOne;rounded=0;entryX=0;entryY=0.75;entryDx=0;entryDy=0;exitX=1;exitY=0.25;exitDx=0;exitDy=0;" edge="1" parent="1" source="96B0HlJwCbave_RlPzZK-4" target="96B0HlJwCbave_RlPzZK-7">
          <mxGeometry width="100" height="100" relative="1" as="geometry">
            <mxPoint x="400" y="410" as="sourcePoint" />
            <mxPoint x="500" y="310" as="targetPoint" />
          </mxGeometry>
        </mxCell>
        <mxCell id="96B0HlJwCbave_RlPzZK-46" value="has/have" style="edgeLabel;html=1;align=center;verticalAlign=middle;resizable=0;points=[];" vertex="1" connectable="0" parent="96B0HlJwCbave_RlPzZK-36">
          <mxGeometry x="-0.0217" y="-3" relative="1" as="geometry">
            <mxPoint y="-3" as="offset" />
          </mxGeometry>
        </mxCell>
      </root>
    </mxGraphModel>
  </diagram>
</mxfile>
